<?xml version="1.0" encoding="iso-8859-1"?>
<!-- Generator: Adobe Illustrator 19.0.0, SVG Export Plug-In . SVG Version: 6.00 Build 0)  -->
<svg version="1.1" id="Layer_1" xmlns="http://www.w3.org/2000/svg" xmlns:xlink="http://www.w3.org/1999/xlink" x="0px" y="0px"
	 viewBox="0 0 512.035 512.035" style="enable-background:new 0 0 512.035 512.035;" xml:space="preserve">
<g transform="translate(1 1)">
	<polygon style="fill:#63D3FD;" points="33.151,255.035 255.017,502.501 476.884,255.035 476.884,33.168 255.017,255.035 
		33.151,33.168 	"/>
	<polygon style="fill:#FFFFFF;" points="7.551,255.035 255.017,502.501 33.151,255.035 33.151,33.168 7.551,7.568 	"/>
	<polygon style="fill:#3DB9F9;" points="476.884,33.168 476.884,255.035 255.017,502.501 502.484,255.035 502.484,7.568 	"/>
	<polygon style="fill:#FFE100;" points="33.151,33.168 255.017,255.035 476.884,33.168 255.017,255.035 	"/>
	<path d="M255.017,511.035c-2.56,0-4.267-0.853-5.973-2.56L1.577,261.008c-1.707-1.707-2.56-3.413-2.56-5.973V7.568
		c0-3.413,1.707-6.827,5.12-7.68c3.413-1.707,6.827-0.853,9.387,1.707l241.493,241.493l104.96-104.96
		c3.413-3.413,8.533-3.413,11.947,0s3.413,8.533,0,11.947L260.991,261.008c-3.413,3.413-8.533,3.413-11.947,0L16.084,28.048v223.573
		l238.933,238.933l238.933-238.933V28.048l-70.827,70.827c-3.413,3.413-8.533,3.413-11.947,0c-3.413-3.413-3.413-8.533,0-11.947
		l85.333-85.333c2.56-2.56,5.973-3.413,9.387-1.707c3.413,0.853,5.12,4.267,5.12,7.68v247.467c0,2.56-0.853,4.267-2.56,5.973
		L260.991,508.475C259.284,510.181,257.577,511.035,255.017,511.035z"/>
	<path d="M400.084,118.501c0-5.12-3.413-8.533-8.533-8.533c-5.12,0-8.533,3.413-8.533,8.533s3.413,8.533,8.533,8.533
		C396.671,127.035,400.084,123.621,400.084,118.501"/>
</g>
<g>
</g>
<g>
</g>
<g>
</g>
<g>
</g>
<g>
</g>
<g>
</g>
<g>
</g>
<g>
</g>
<g>
</g>
<g>
</g>
<g>
</g>
<g>
</g>
<g>
</g>
<g>
</g>
<g>
</g>
</svg>
