<?xml version="1.0" encoding="iso-8859-1"?>
<!-- Generator: Adobe Illustrator 19.0.0, SVG Export Plug-In . SVG Version: 6.00 Build 0)  -->
<svg version="1.1" id="Layer_1" xmlns="http://www.w3.org/2000/svg" xmlns:xlink="http://www.w3.org/1999/xlink" x="0px" y="0px"
	 viewBox="0 0 512.035 512.035" style="enable-background:new 0 0 512.035 512.035;" xml:space="preserve">
<g transform="translate(1 1)">
	<polygon style="fill:#63D3FD;" points="476.884,255 255.017,7.533 33.151,255 33.151,476.867 255.017,255 476.884,476.867 	"/>
	<polygon style="fill:#3DB9F9;" points="502.484,255 255.017,7.533 476.884,255 476.884,476.867 502.484,502.467 	"/>
	<polygon style="fill:#FFFFFF;" points="33.151,476.867 33.151,255 255.017,7.533 7.551,255 7.551,502.467 	"/>
	<path d="M502.484,511c-2.56,0-4.267-0.853-5.973-2.56L255.017,266.947L13.524,508.44c-2.56,2.56-5.973,3.413-9.387,1.707
		c-3.413-0.853-5.12-4.267-5.12-7.68V255c0-2.56,0.853-4.267,2.56-5.973l85.333-85.333c3.413-3.413,8.533-3.413,11.947,0
		s3.413,8.533,0,11.947l-82.773,82.773v223.573l232.96-232.96c3.413-3.413,8.533-3.413,11.947,0l232.96,232.96V258.413
		L255.017,19.48l-104.96,104.96c-3.413,3.413-8.533,3.413-11.947,0s-3.413-8.533,0-11.947L249.044,1.56
		c3.413-3.413,8.533-3.413,11.947,0l247.467,247.467c1.707,1.707,2.56,3.413,2.56,5.973v247.467c0,3.413-1.707,6.827-5.12,7.68
		C505.044,511,503.337,511,502.484,511z"/>
	<path d="M127.017,144.067c0-5.12-3.413-8.533-8.533-8.533c-5.12,0-8.533,3.413-8.533,8.533c0,5.12,3.413,8.533,8.533,8.533
		C123.604,152.6,127.017,149.187,127.017,144.067"/>
</g>
<g>
</g>
<g>
</g>
<g>
</g>
<g>
</g>
<g>
</g>
<g>
</g>
<g>
</g>
<g>
</g>
<g>
</g>
<g>
</g>
<g>
</g>
<g>
</g>
<g>
</g>
<g>
</g>
<g>
</g>
</svg>
